<svg width="177" height="30" viewBox="0 0 177 30" fill="none" xmlns="http://www.w3.org/2000/svg">
<path fill-rule="evenodd" clip-rule="evenodd" d="M29.4764 30H53.6495L55.0682 22.9788H42.1427C39.9077 23.2757 37.7307 23.5759 35.6179 23.8779C33.8852 24.1255 32.1957 24.3748 30.5634 24.6207L29.4764 30ZM39.3302 21.6721L40.0207 18.2552H54.3205L55.6359 11.7447H41.3363L42.2564 7.19143H58.0457L59.4557 0.212684H35.4954L30.8495 23.2045L31.6745 23.0505C34.0779 22.6034 36.635 22.1413 39.3302 21.6721ZM0.5 30H8.75627L11.0435 18.6809H21.6405L20.3077 25.2771C22.8159 24.7573 25.7025 24.182 28.9086 23.5712L33.6286 0.212684H25.3723L23.1195 11.3616H12.5224L14.7752 0.212684H6.51891L0.5 30ZM20.1082 26.2648L19.3534 30H27.6096L28.6373 24.9141C25.5139 25.3932 22.6348 25.8543 20.1082 26.2648ZM144.526 30H155.889C165.507 30 172.574 24.8593 175.161 17.5298C167.759 17.0408 158.085 16.3744 147.341 16.0662L144.526 30ZM176.213 11.8651C176.312 4.89036 171.369 0.212684 162.078 0.212684H150.545L148.166 11.986C149.884 11.9482 151.561 11.9154 153.19 11.8868C162.388 11.7253 170.057 11.7034 176.213 11.8651ZM110.649 30H119.289L122.5 24.6382H134.033L135.078 30H143.93L140.825 15.9292C139.664 15.9141 138.494 15.9038 137.317 15.8994C135.713 15.8934 134.095 15.8979 132.464 15.9122L132.906 18.2129H126.224L127.564 15.9836C124.812 16.0389 122.034 16.1197 119.238 16.2232L110.649 30ZM140.001 12.1944L137.309 0H129.351L121.31 12.8994C124.117 12.768 126.896 12.6501 129.631 12.5447L131.289 9.78732L131.802 12.4632C134.593 12.3612 137.332 12.2721 140.001 12.1944ZM89.6255 30H97.8818L99.6016 21.4895H103.73C108.792 21.4895 113.282 19.7395 116.058 16.3499C108.099 16.6893 100.033 17.1991 92.0887 17.8088L89.6255 30ZM117.983 13.0607C118.274 12.3277 118.506 11.5487 118.673 10.7234L118.69 10.6383C120.022 4.04262 115.945 0.212684 108.454 0.212684H95.6445L92.7121 14.724C95.4863 14.4914 98.2873 14.276 101.099 14.0763L102.499 7.14898H106.414C109.351 7.14898 110.914 8.46814 110.399 11.0212L110.381 11.1063C110.184 12.0807 109.71 12.9129 109.021 13.5563C112.019 13.3747 115.013 13.21 117.983 13.0607ZM79.7802 30H88.0368L90.4748 17.9343C88.2454 18.1093 86.0266 18.292 83.8239 18.4807C83.2405 18.5307 82.6586 18.5811 82.0773 18.632L79.7802 30ZM91.0957 14.8613L94.0555 0.212684H85.7991L82.6789 15.6545C84.4491 15.474 86.2363 15.3001 88.0393 15.1342C89.0534 15.0408 90.0725 14.9497 91.0957 14.8613ZM55.6071 30H78.2907L79.7525 22.7659H65.3252L65.8466 20.1854C62.9818 20.4838 60.165 20.7904 57.4048 21.1038L55.6071 30ZM66.3791 17.5498L69.8823 0.212684H61.6261L57.8871 18.7164C60.6413 18.3188 63.4752 17.9282 66.3791 17.5498Z" fill="white"/>
</svg>
